<?xml version="1.0" encoding="utf-8"?>
<!-- Generator: Adobe Illustrator 24.0.1, SVG Export Plug-In . SVG Version: 6.00 Build 0)  -->
<svg version="1.1" id="Layer_1" xmlns="http://www.w3.org/2000/svg" xmlns:xlink="http://www.w3.org/1999/xlink" x="0px" y="0px"
	 viewBox="0 0 128 114" style="enable-background:new 0 0 128 114;" xml:space="preserve">
<style type="text/css">
	.st0{fill:#EF9FC1;}
	.st1{fill:#75787B;}
	.st2{fill:none;}
</style>
<title>icon_step1</title>
<g id="Landing">
	<g id="Landing_SSU_una-sucursal_cuisine" transform="translate(-265.000000, -1832.000000)">
		<g id="Group-18" transform="translate(223.000000, 1832.000000)">
			<g id="icon_step1" transform="translate(42.000000, 0.000000)">
				<g id="Group-23" transform="translate(27.000000, 6.000000)">
					<polygon id="_x31_" class="st0" points="23.5,60 23.5,0 0.5,0 0.5,8.8 13.6,8.8 13.6,60 					"/>
					<g id="step-1" transform="translate(4.000000, 23.000000)">
						<path id="Shape" class="st1" d="M58.7,22.5V4c0-2.2-1.8-4-4-4h-32c-2.2,0-4,1.8-4,4v22.7c-1.7-1.7-4.1-2.8-6.7-2.8
							c-0.7,0-1.3,0.6-1.3,1.3v41.5l-0.9-0.3c-0.1,0-0.1,0-0.2,0c-0.1,0-0.2,0-0.3,0c-0.1,0-0.2,0-0.3,0c-0.1,0-0.2,0-0.2,0.1
							c-0.1,0-0.2,0.1-0.2,0.1c-0.1,0-0.1,0.1-0.2,0.1c-0.1,0.1-0.1,0.1-0.2,0.2c0,0.1-0.1,0.1-0.1,0.1l-8,15.9
							c-0.3,0.7-0.1,1.5,0.6,1.8c0.2,0.1,0.4,0.1,0.6,0.1c0.5,0,1-0.3,1.2-0.7L10,69.2l26.9,9.3c0,0,0,0,0,0l1.3,0.4l-2,4
							c-0.3,0.7-0.1,1.5,0.6,1.8c0.2,0.1,0.4,0.1,0.6,0.1c0.5,0,1-0.3,1.2-0.7l2.7-5.3c0,0,0,0,0-0.1c0,0,0-0.1,0-0.1
							c0-0.1,0-0.1,0-0.2c0-0.1,0-0.2,0-0.3c0-0.1,0-0.2,0-0.2c0-0.1,0-0.2-0.1-0.2c0-0.1-0.1-0.1-0.1-0.2c0-0.1-0.1-0.1-0.2-0.2
							c-0.1-0.1-0.1-0.1-0.2-0.2c-0.1,0-0.1-0.1-0.1-0.1c0,0-0.1,0-0.1,0c0,0,0,0-0.1,0l-0.8-0.3L53.9,61h0.7c2.2,0,4-1.8,4-4
							c2.9,0,5.3-2.4,5.3-5.3c0-1.6-0.7-3-1.8-4c1.1-1,1.8-2.4,1.8-4c0-1.6-0.7-3-1.8-4c1.1-1,1.8-2.4,1.8-4s-0.7-3-1.8-4
							c1.1-1,1.8-2.4,1.8-4C64,24.9,61.6,22.5,58.7,22.5L58.7,22.5z M36.9,75.7l-23.6-8.2V26.6c3,0.6,5.3,3.3,5.3,6.5V57
							c0,2.2,1.8,4,4,4h27.7L36.9,75.7z M56,57c0,0.7-0.6,1.3-1.3,1.3h-32c-0.7,0-1.3-0.6-1.3-1.3V4c0-0.7,0.6-1.3,1.3-1.3h32
							C55.4,2.7,56,3.2,56,4v18.7c-2.3,0.6-4,2.7-4,5.1c0,1.6,0.7,3,1.8,4c-1.1,1-1.8,2.4-1.8,4c0,1.6,0.7,3,1.8,4
							c-1.1,1-1.8,2.4-1.8,4c0,1.6,0.7,3,1.8,4c-1.1,1-1.8,2.4-1.8,4c0,2.5,1.7,4.5,4,5.1V57z M58.7,54.3h-1.3
							c-1.5,0-2.7-1.2-2.7-2.7c0-1.5,1.2-2.6,2.7-2.7c0,0,0,0,0,0s0,0,0,0h1.3c1.5,0,2.7,1.2,2.7,2.7S60.1,54.3,58.7,54.3z
							 M58.7,46.4C58.7,46.4,58.7,46.4,58.7,46.4l-1.3,0c0,0,0,0,0,0c-1.5,0-2.7-1.2-2.7-2.6c0-1.5,1.2-2.7,2.7-2.7c0,0,0,0,0,0h1.3
							c1.5,0,2.7,1.2,2.7,2.7S60.1,46.4,58.7,46.4L58.7,46.4z M58.7,38.4h-1.3c0,0,0,0,0,0c-1.5,0-2.7-1.2-2.7-2.6
							c0-1.5,1.2-2.7,2.7-2.7h1.3c0,0,0,0,0,0c1.5,0,2.7,1.2,2.7,2.6C61.3,37.3,60.1,38.4,58.7,38.4z M58.7,30.5
							C58.7,30.5,58.7,30.5,58.7,30.5C58.7,30.5,58.7,30.5,58.7,30.5l-1.3,0c0,0,0,0,0,0c-1.5,0-2.7-1.2-2.7-2.7s1.2-2.7,2.7-2.7
							h1.3c1.5,0,2.7,1.2,2.7,2.7C61.3,29.3,60.1,30.5,58.7,30.5L58.7,30.5z"/>
						<path id="Path" class="st1" d="M11.9,75.2L11.9,75.2c-0.8,0-1.5,0.7-1.5,1.5c0,0.8,0.7,1.5,1.5,1.5c0.8,0,1.5-0.7,1.5-1.5
							C13.4,75.8,12.7,75.2,11.9,75.2L11.9,75.2z"/>
						<path id="Shape_1_" class="st1" d="M38.3,49.1c-2.3,0-4.1,1.8-4.1,4.1c0,2.3,1.8,4.1,4.1,4.1c2.3,0,4.1-1.8,4.1-4.1
							C42.4,51,40.6,49.1,38.3,49.1z M38.3,54.6c-0.8,0-1.4-0.6-1.4-1.4s0.6-1.4,1.4-1.4s1.4,0.6,1.4,1.4S39.1,54.6,38.3,54.6z"/>
						<path id="Path_1_" class="st1" d="M35,8.2c0.8,0,1.5-0.7,1.5-1.5S35.8,5.2,35,5.2h0c-0.8,0-1.5,0.7-1.5,1.5S34.2,8.2,35,8.2z"
							/>
						<path id="Path_2_" class="st1" d="M38.5,8.2h4c0.7,0,1.3-0.7,1.3-1.5s-0.6-1.5-1.3-1.5h-4c-0.7,0-1.3,0.7-1.3,1.5
							S37.8,8.2,38.5,8.2z"/>
						<path id="Shape_2_" class="st1" d="M49,23.6c0-0.1-0.1-0.2-0.1-0.3c0,0,0-0.1,0-0.1l-2.7-4c0,0-0.1-0.1-0.1-0.1
							C46,19,46,19,45.9,18.9c-0.1-0.1-0.1-0.1-0.2-0.1c-0.1,0-0.1-0.1-0.2-0.1c-0.1,0-0.2,0-0.3-0.1c0,0-0.1,0-0.1,0H31.6
							c0,0-0.1,0-0.1,0c-0.1,0-0.2,0-0.3,0.1c-0.1,0-0.2,0.1-0.2,0.1c-0.1,0-0.1,0.1-0.2,0.1c-0.1,0.1-0.1,0.1-0.2,0.2
							c0,0-0.1,0.1-0.1,0.1l-2.7,4c0,0,0,0.1,0,0.1c0,0.1-0.1,0.2-0.1,0.3c0,0.1,0,0.2-0.1,0.3c0,0,0,0.1,0,0.1v14.8
							c0,0.7,0.6,1.3,1.3,1.3h18.9c0.7,0,1.3-0.6,1.3-1.3V24c0,0,0-0.1,0-0.1C49.1,23.8,49.1,23.7,49,23.6L49,23.6z M44.3,21.3
							l0.9,1.3H42l-0.4-1.3H44.3z M37.9,21.3h0.8l0.4,1.3h-1.7L37.9,21.3z M37,25.3h2.7v1.3H37V25.3z M32.3,21.3h2.8l-0.5,1.3h-3.2
							L32.3,21.3z M46.4,37.5H30.2V25.3h4V28c0,0.7,0.6,1.3,1.3,1.3H41c0.7,0,1.3-0.6,1.3-1.3v-2.7h4V37.5z"/>
					</g>
				</g>
				<rect id="Rectangle" y="0" class="st2" width="128" height="114"/>
			</g>
		</g>
	</g>
</g>
</svg>
