<?xml version="1.0" encoding="utf-8"?>
<!-- Generator: Adobe Illustrator 24.0.1, SVG Export Plug-In . SVG Version: 6.00 Build 0)  -->
<svg version="1.1" id="Layer_1" xmlns="http://www.w3.org/2000/svg" xmlns:xlink="http://www.w3.org/1999/xlink" x="0px" y="0px"
	 viewBox="0 0 128 114" style="enable-background:new 0 0 128 114;" xml:space="preserve">
<style type="text/css">
	.st0{fill:#EF9FC1;}
	.st1{fill:#75787B;}
	.st2{fill:none;}
</style>
<title>icon_step4</title>
<g id="Landing">
	<g id="Landing_SSU_una-sucursal_cuisine" transform="translate(-996.000000, -1832.000000)">
		<g id="Group-18" transform="translate(223.000000, 1832.000000)">
			<g id="icon_step4" transform="translate(773.000000, 0.000000)">
				<g id="Group-20" transform="translate(18.000000, 6.000000)">
					<path id="_x34_" class="st0" d="M41.4,60V46.5h9.9v-8.8h-9.9V0h-8.6L0.2,39.2v7.3h31.3V60H41.4z M31.5,37.7H12.7v-0.4
						c0,0,1-0.8,1.8-1.7l17-20.9V37.7z"/>
					<g id="step-4" transform="translate(18.000000, 29.000000)">
						<rect id="Rectangle" x="21" y="10.6" class="st1" width="5" height="3"/>
						<rect id="Rectangle_1_" x="21" y="14.6" class="st1" width="5" height="3"/>
						<rect id="Rectangle_2_" x="21" y="19.6" class="st1" width="5" height="3"/>
						<path id="Path" class="st1" d="M43,11.6h-2.5c0,1.4-1.1,2.5-2.5,2.5v2.5C40.8,16.6,43,14.4,43,11.6L43,11.6z"/>
						<path id="Path_1_" class="st1" d="M49,17.6v-2.5c-1.4,0-2.5-1.1-2.5-2.5H44C44,15.4,46.2,17.6,49,17.6L49,17.6z"/>
						<path id="Shape" class="st1" d="M62.5,69.8c-2,0.4-4.1,0.5-6.2,0.3l-21.1-1.9c-0.7-0.1-1.2-0.7-1.2-1.4c0-0.7,0.6-1.3,1.3-1.3
							h16.3c1.7,0,3-1.3,3-3v0c0-0.6-0.2-1.2-0.6-1.8l-2.8-3.7c-0.2-0.2-0.3-0.5-0.3-0.8v-0.2c0-0.5,0.3-1,0.8-1.2
							c0.5-0.2,1.1-0.1,1.5,0.3l5.3,5.3c0.2,0.2,0.5,0.4,0.9,0.4h13.3v-2.4H59.9l-5-4.9c-0.1-0.1-0.3-0.2-0.4-0.3V25.9
							c0-0.7-0.5-1.2-1.2-1.2h-1.2V21H54c2.3,0,4.2-1.9,4.2-4.2s-1.9-4.2-4.2-4.2h-0.1c1.3-1.5,1.2-3.7-0.2-5.1
							c-1.4-1.4-3.6-1.5-5.1-0.2C48.3,4.9,46.2,3,43.7,3c-2.5,0-4.6,1.9-4.8,4.4c-1.5-1.3-3.7-1.2-5.1,0.2c-1.4,1.4-1.5,3.6-0.2,5.1
							h-0.1c-0.6,0-1.3,0.1-1.8,0.4V7.8c0-4-3.3-7.2-7.3-7.2S17,3.8,17,7.8v16.8h-1.2c-0.7,0-1.2,0.5-1.2,1.2v5.3L8,36.7H0v2.4h8.5
							c0.3,0,0.6-0.1,0.8-0.3l7-6c0.7-0.6,1.6-1,2.6-1c0.2,0,0.4,0.1,0.5,0.3c0.1,0.2,0,0.4-0.1,0.5L14.9,37
							c-0.3,0.3-0.5,0.9-0.3,1.3c0.2,0.4,0.6,0.7,1.1,0.7h12.7c0.3,0,0.6,0.3,0.6,0.6c0,0.3-0.3,0.6-0.6,0.6h-9.1
							c-0.7,0-1.2,0.5-1.2,1.2s0.5,1.2,1.2,1.2h12.7c0.3,0,0.6,0.3,0.6,0.6c0,0.3-0.3,0.6-0.6,0.6H19.4c-0.7,0-1.2,0.5-1.2,1.2
							s0.5,1.2,1.2,1.2h10.3c0.3,0,0.6,0.3,0.6,0.6c0,0.3-0.3,0.6-0.6,0.6H19.4c-0.7,0-1.2,0.5-1.2,1.2s0.5,1.2,1.2,1.2h6
							c0,0,0.1,0,0.1,0.1c0,0,0,0.1-0.1,0.1l-8.3,1l-8.3-2.3c-0.1,0-0.2,0-0.3,0H0v2.4h8.3l6.2,1.8v11.5h0c0,0.3,0.1,0.6,0.4,0.9
							c0.2,0.2,0.5,0.4,0.9,0.4h16c-0.4,1.1-0.3,2.3,0.3,3.3c0.6,1,1.7,1.6,2.8,1.7L56,72.5c0.8,0.1,1.5,0.1,2.3,0.1
							c1.5,0,3.1-0.1,4.6-0.4L73,70.4L72.6,68L62.5,69.8z M29.1,19.8c0-0.7,0.5-1.2,1.2-1.2h2.4c2.7,0,4.8,2.2,4.9,4.8
							c0,0.7-0.5,1.2-1.2,1.2H34C31.3,24.7,29.1,22.5,29.1,19.8z M33.4,15h3c0.5,0,0.9-0.3,1.1-0.7c0.2-0.4,0.1-1-0.3-1.3l-1.8-1.8
							c-0.3-0.3-0.5-0.8-0.4-1.3c0.1-0.5,0.5-0.8,1-1c0.5-0.1,1,0,1.3,0.3l1.8,1.8c0.3,0.3,0.9,0.4,1.3,0.3c0.5-0.2,0.7-0.6,0.7-1.1
							V7.8c0-1.3,1.1-2.4,2.4-2.4c1.3,0,2.4,1.1,2.4,2.4v2.4c0,0.5,0.3,0.9,0.7,1.1c0.5,0.2,1,0.1,1.3-0.3L50,9.3
							c0.3-0.3,0.8-0.5,1.3-0.3c0.5,0.1,0.8,0.5,1,1c0.1,0.5,0,1-0.4,1.3L50.1,13c-0.3,0.3-0.5,0.9-0.3,1.3c0.2,0.4,0.6,0.7,1.1,0.7
							h3c1,0,1.8,0.8,1.8,1.8c0,1-0.8,1.8-1.8,1.8h-3c-0.7,0-1.2,0.5-1.2,1.2v0.6c-2.9-2.6-7.5-2.4-10.2,0.4
							c-1.1-2.8-3.8-4.7-6.8-4.7h-1.1C31.9,15.5,32.6,15,33.4,15L33.4,15z M49.6,24.7h-9.4c0.6-2.1,2.5-3.6,4.7-3.6
							C47.1,21,49,22.5,49.6,24.7z M19.4,7.8c0-2.7,2.2-4.8,4.9-4.8s4.9,2.2,4.9,4.8v8.6c-1.5,0.5-2.4,1.9-2.4,3.4
							c0,1.8,0.7,3.5,1.9,4.8h-9.1V7.8z M21.8,27.1h2.4v9.6h-2.4V27.1z M18.9,29.5c-0.7,0-1.3,0.1-1.9,0.3v-2.7h2.4v2.5
							C19.2,29.5,19.1,29.5,18.9,29.5z M19.4,36v0.7h-0.7L19.4,36z M21.8,52.9l2.4-0.3v8.8l-2.4-2.4V52.9z M17.1,53.5l2.3-0.3v5.8
							L17,61.5v-7.9C17,53.5,17.1,53.5,17.1,53.5L17.1,53.5z M18.7,63.2l1.9-1.9l1.9,1.9H18.7z M26.7,52.1c0.8-0.4,1.2-1.3,1.2-2.1
							c0,0,0-0.1,0-0.1h1.8c0.9,0,1.8-0.4,2.4-1.1c0.6-0.7,0.8-1.6,0.6-2.5c1.5-0.3,2.6-1.7,2.5-3.2c-0.1-1.6-1.5-2.7-3-2.7h-0.7
							c0.2-0.9,0-1.8-0.6-2.5c-0.6-0.7-1.4-1.1-2.3-1.1h-1.8v-9.6h25.5v25.3c-2,0.1-3.6,1.7-3.6,3.8v0.2c0,0.8,0.3,1.6,0.8,2.3
							l2.8,3.7c0.1,0.1,0.1,0.2,0.1,0.3v0c0,0.3-0.3,0.6-0.6,0.6H26.7V52.1z"/>
					</g>
				</g>
				<rect id="Rectangle-Copy-4" y="0" class="st2" width="128" height="114"/>
			</g>
		</g>
	</g>
</g>
</svg>
