<?xml version="1.0" encoding="utf-8"?>
<!-- Generator: Adobe Illustrator 24.0.1, SVG Export Plug-In . SVG Version: 6.00 Build 0)  -->
<svg version="1.1" id="Layer_1" xmlns="http://www.w3.org/2000/svg" xmlns:xlink="http://www.w3.org/1999/xlink" x="0px" y="0px"
	 viewBox="0 0 60 52" style="enable-background:new 0 0 60 52;" xml:space="preserve">
<style type="text/css">
	.st0{fill-rule:evenodd;clip-rule:evenodd;fill:#EF9FC1;}
	.st1{fill:none;stroke:#75787B;stroke-width:2;stroke-miterlimit:10;}
	.st2{fill:#75787B;}
	.st3{fill:none;stroke:#75787B;stroke-width:1.9952;stroke-linejoin:round;stroke-miterlimit:10;}
	.st4{fill:#EF9FC1;stroke:#75787B;stroke-width:1.945;stroke-linejoin:round;stroke-miterlimit:10;}
	.st5{fill:#EF9FC1;stroke:#75787B;stroke-width:2.0028;stroke-linejoin:round;stroke-miterlimit:10;}
</style>
<g>
	<circle class="st0" cx="38" cy="30" r="22"/>
</g>
<path class="st1" d="M38.25,50.11H11.62c-1.19,0-2.15-0.96-2.15-2.15V3.18c0-1.19,0.96-2.15,2.15-2.15h26.63
	c1.19,0,2.15,0.96,2.15,2.15v44.77C40.41,49.14,39.44,50.11,38.25,50.11z"/>
<path id="Path_4_" class="st2" d="M22.06,6.95c0.66,0,1.24-0.58,1.24-1.24s-0.58-1.24-1.24-1.24l0,0c-0.66,0-1.24,0.58-1.24,1.24
	S21.4,6.95,22.06,6.95z"/>
<path id="Path_3_" class="st2" d="M24.95,6.95h3.31c0.58,0,1.07-0.58,1.07-1.24s-0.5-1.24-1.07-1.24h-3.31
	c-0.58,0-1.07,0.58-1.07,1.24S24.37,6.95,24.95,6.95z"/>
<circle class="st1" cx="25.03" cy="44.19" r="2.88"/>
<path class="st3" d="M34.66,25.12c0-5.03-4.35-9.12-9.72-9.12s-9.72,4.08-9.72,9.12C15.22,25.12,34.66,25.12,34.66,25.12z"/>
<circle class="st2" cx="27.8" cy="19.75" r="0.52"/>
<circle class="st2" cx="29.51" cy="20.19" r="0.52"/>
<circle class="st2" cx="28.6" cy="21.62" r="0.52"/>
<path class="st4" d="M32.85,36.5H17.26c-0.74,0-1.37-0.62-1.51-1.47l-0.2-1.24c-0.18-1.12,0.55-2.15,1.51-2.15h15.97
	c0.95,0,1.68,1.01,1.52,2.12L34.37,35C34.24,35.86,33.6,36.5,32.85,36.5z"/>
<path class="st3" d="M33.03,31.63H16.89c-1,0-1.81-0.81-1.81-1.81l0,0c0-1,0.81-1.81,1.81-1.81h16.14c1,0,1.81,0.81,1.81,1.81l0,0
	C34.84,30.82,34.03,31.63,33.03,31.63z"/>
<path class="st5" d="M31.18,28.65c0.24-0.21,0.55-0.32,0.87-0.32h1.28c0.74,0,1.34-0.6,1.34-1.34l-0.05-2.14l-19.4-0.14v2.16
	c0,0.74,0.6,1.34,1.34,1.34h6.37c0.3,0,0.58,0.1,0.82,0.28l4.04,2.59L31.18,28.65z"/>
</svg>
