<?xml version="1.0" encoding="utf-8"?>
<!-- Generator: Adobe Illustrator 24.0.1, SVG Export Plug-In . SVG Version: 6.00 Build 0)  -->
<svg version="1.1" id="Layer_1" xmlns="http://www.w3.org/2000/svg" xmlns:xlink="http://www.w3.org/1999/xlink" x="0px" y="0px"
	 viewBox="0 0 60 52" style="enable-background:new 0 0 60 52;" xml:space="preserve">
<style type="text/css">
	.st0{fill-rule:evenodd;clip-rule:evenodd;fill:#EF9FC1;}
	.st1{fill:#75787B;}
</style>
<g>
	<circle class="st0" cx="38" cy="30" r="22"/>
	<g>
		<path class="st1" d="M45.2,14.5c-1-1-2.5-1.7-3.9-1.7V2.5c0-1.4-1.1-2.5-2.6-2.5H12.1c0,0,0,0-0.1,0c-0.1,0-0.1,0-0.2,0
			c0,0-0.1,0-0.1,0c-0.1,0-0.2,0.1-0.2,0.2L0.4,10.4c-0.1,0.1-0.1,0.2-0.2,0.3c0,0,0,0.1,0,0.1c0,0.1,0,0.2-0.1,0.2c0,0,0,0,0,0.1
			v37.4c0,1.4,1.1,2.5,2.6,2.5h36.1c1.4,0,2.6-1.1,2.6-2.5V26.9l3.9-3.9c1.1-1.1,1.8-2.6,1.8-4.2C47,17.2,46.4,15.7,45.2,14.5z
			 M11.3,2.8v6.6c0,0.5-0.4,0.9-0.9,0.9H3.2L11.3,2.8L11.3,2.8z M39.6,28.6v19.9c0,0.5-0.4,0.8-0.9,0.8H2.7c-0.5,0-0.9-0.4-0.9-0.8
			V11.9h8.6c1.4,0,2.6-1.1,2.6-2.6V1.7h25.8c0.5,0,0.9,0.4,0.9,0.9V13c-0.1,0-0.2,0-0.2,0.1c-1,0.3-1.9,0.8-2.6,1.5L14.9,36.2
			c0,0-0.1,0.1-0.1,0.1c0,0,0,0,0,0c-0.1,0.1-0.1,0.2-0.1,0.3c0,0,0,0,0,0l0,0.1l-1.2,8.4c0,0.2,0,0.5,0.2,0.7
			c0.2,0.2,0.4,0.3,0.6,0.3c0,0,0.1,0,0.1,0l8.5-1.2c0,0,0,0,0,0c0,0,0.1,0,0.1,0c0,0,0,0,0.1,0c0,0,0.1,0,0.1-0.1c0,0,0,0,0,0
			c0,0,0.1,0,0.1-0.1L39.6,28.6z M21.5,43.3L16.7,44l0.6-0.6c0.3-0.3,0.3-0.9,0-1.2c-0.3-0.3-0.9-0.3-1.2,0l-0.6,0.6l0.7-4.7
			l3.5,1.8l1.3,2.6L21.5,43.3L21.5,43.3z M22.2,40.9l-0.8-1.6L31.9,29c0.2-0.2,0.3-0.5,0.2-0.8c-0.1-0.3-0.3-0.5-0.6-0.6
			c-0.3-0.1-0.6,0-0.8,0.2L20.2,38.2L17,36.5L33.7,20l6.1,6L23,42.6L22.2,40.9L22.2,40.9z M41,24.8l-6.1-6l1.2-1.2l6.1,6L41,24.8
			L41,24.8z M44,21.8l-0.6,0.6l-6.1-6l0.6-0.6c0.5-0.5,1.1-0.9,1.8-1.1c0.2-0.1,0.5-0.1,0.7-0.1c1.8-0.2,3.5,0.8,4.3,2.4
			S45.3,20.5,44,21.8z"/>
		<path class="st1" d="M35.5,24.2c-0.3-0.3-0.9-0.3-1.2,0l-1.2,1.2c-0.2,0.2-0.3,0.5-0.2,0.8c0.1,0.3,0.3,0.5,0.6,0.6
			c0.3,0.1,0.6,0,0.8-0.2l1.2-1.2C35.9,25,35.9,24.5,35.5,24.2L35.5,24.2z M7,23.8h18c0.5,0,0.9-0.4,0.9-0.9s-0.4-0.9-0.9-0.9H7
			c-0.5,0-0.9,0.4-0.9,0.9C6.1,23.4,6.5,23.8,7,23.8z M7,28.9h12.9c0.5,0,0.9-0.4,0.9-0.9c0-0.5-0.4-0.9-0.9-0.9H7
			c-0.5,0-0.9,0.4-0.9,0.9C6.1,28.5,6.5,28.9,7,28.9z M15.6,33.2c0-0.5-0.4-0.8-0.9-0.8H7c-0.5,0-0.9,0.4-0.9,0.8
			C6.1,33.6,6.5,34,7,34h7.7C15.2,34,15.6,33.6,15.6,33.2L15.6,33.2z M13.8,18.7h16.3c0.5,0,0.9-0.4,0.9-0.9c0-0.5-0.4-0.9-0.9-0.9
			H13.8c-0.5,0-0.9,0.4-0.9,0.9S13.4,18.7,13.8,18.7z M7,18.7h3.4c0.5,0,0.9-0.4,0.9-0.9c0-0.5-0.4-0.9-0.9-0.9H7
			c-0.5,0-0.9,0.4-0.9,0.9S6.5,18.7,7,18.7z"/>
	</g>
</g>
</svg>
