<?xml version="1.0" encoding="utf-8"?>
<!-- Generator: Adobe Illustrator 24.0.1, SVG Export Plug-In . SVG Version: 6.00 Build 0)  -->
<svg version="1.1" id="Layer_1" xmlns="http://www.w3.org/2000/svg" xmlns:xlink="http://www.w3.org/1999/xlink" x="0px" y="0px"
	 viewBox="0 0 36 36" style="enable-background:new 0 0 36 36;" xml:space="preserve">
<style type="text/css">
	.st0{fill:#FFFFFF;}
	.st1{fill:#D70F64;}
</style>
<g>
	<path class="st0" d="M18,0C8.1,0,0,8.1,0,18s8.1,18,18,18s18-8.1,18-18S27.9,0,18,0z"/>
	<path class="st1" d="M27.8,13.7l-10,9.8c-0.3,0.3-0.7,0.4-1.1,0.4c-0.4,0-0.8-0.1-1.1-0.4l-5-4.9c-0.6-0.6-0.6-1.5,0-2.1
		c0.6-0.6,1.6-0.6,2.2,0l3.9,3.8l8.9-8.8c0.6-0.6,1.6-0.6,2.2,0C28.4,12.2,28.4,13.1,27.8,13.7z"/>
</g>
</svg>
