<?xml version="1.0" encoding="utf-8"?>
<!-- Generator: Adobe Illustrator 24.0.1, SVG Export Plug-In . SVG Version: 6.00 Build 0)  -->
<svg version="1.1" id="Layer_1" xmlns="http://www.w3.org/2000/svg" xmlns:xlink="http://www.w3.org/1999/xlink" x="0px" y="0px"
	 viewBox="0 0 128 114" style="enable-background:new 0 0 128 114;" xml:space="preserve">
<style type="text/css">
	.st0{fill:#EF9FC1;}
	.st1{fill:#75787B;}
	.st2{fill:none;}
</style>
<title>icon_step2</title>
<g id="Landing">
	<g id="Landing_SSU_una-sucursal_cuisine" transform="translate(-496.000000, -1832.000000)">
		<g id="Group-18" transform="translate(223.000000, 1832.000000)">
			<g id="icon_step2" transform="translate(273.000000, 0.000000)">
				<g id="Group-22" transform="translate(24.000000, 6.000000)">
					<path id="_x32_" class="st0" d="M43.3,61.3v-8.8H17.1l18.4-18.4c5-4.9,6.7-9.5,6.7-15.5C42.2,8.3,34.7,0,20.6,0
						C7.8,0,0.4,8.2,0.4,8.2l5.3,7.9c1.8-1.5,6.8-6.6,14.1-6.6c6.9,0,11.1,4.5,11.1,10.1c0,3.8-1.2,6.4-5.4,10.6L1.4,54.4v6.9H43.3z
						"/>
					<g id="step-2" transform="translate(22.000000, 29.000000)">
						<path id="Shape" class="st1" d="M55.9,71.9l-2.4-7.1V26c0-0.7-0.5-1.2-1.2-1.2h-3.7V9c0-4.7-3.8-8.5-8.5-8.5S31.7,4.3,31.7,9
							v1.2h-4.9V1.7c0-0.7-0.5-1.2-1.2-1.2h-7.3C17.6,0.5,17,1,17,1.7v5.9l-2.4-4.1C14.5,3.2,14.3,3,13.9,3s-0.6,0-0.9,0.1L6.7,6.7
							C6.4,6.9,6.2,7.2,6.1,7.5C6,7.8,6.1,8.1,6.3,8.4l5,8.6c-2.5,1.8-3.9,4.7-3.9,7.8H3.7c-0.7,0-1.2,0.5-1.2,1.2v38.7l-2.4,7.1
							C-0.1,72.3,0,72.7,0.2,73c0.2,0.3,0.6,0.5,1,0.5h53.6c0.4,0,0.8-0.2,1-0.5C56,72.7,56.1,72.3,55.9,71.9z M51.1,63.8h-9.7V27.3
							h9.7V63.8z M34.1,9c0-3.4,2.7-6.1,6.1-6.1s6.1,2.7,6.1,6.1v15.8h-8.5v-3.6c0-0.5-0.1-1.1-0.2-1.6L42,17
							c0.8-0.5,1.5-1.3,1.7-2.2s0.1-1.9-0.4-2.8c-0.5-0.8-1.3-1.5-2.2-1.7c-0.9-0.3-1.9-0.1-2.8,0.4l-4.3,2.5V9z M26.8,17.5h4.9
							c2,0,3.6,1.6,3.7,3.6v3.6h-8.5c0-2.4-0.9-4.6-2.4-6.4C25,17.8,25.9,17.5,26.8,17.5z M34.4,15.8l5.1-3c0.6-0.3,1.3-0.1,1.6,0.5
							c0.3,0.6,0.1,1.3-0.4,1.7l-4.3,2.5C35.9,16.7,35.2,16.2,34.4,15.8L34.4,15.8z M31.7,15.1h-4.9v-2.4h4.9V15.1z M9,8.2l4.2-2.4
							l4,7c0.3,0.5,0.8,0.7,1.4,0.6c0.5-0.1,0.9-0.6,0.9-1.2V2.9h4.9v12.7c-0.7,0.3-1.3,0.7-1.8,1.2c-2.7-1.9-6.2-2.2-9.2-1L9,8.2z
							 M17,17.5c4,0,7.3,3.3,7.3,7.3H9.7C9.7,20.8,13,17.5,17,17.5z M4.9,27.3H39v36.5H4.9V27.3z M36.9,71.1h-34l1.6-4.9h34
							L36.9,71.1z M39.4,71.1l1.6-4.9h10.4l1.6,4.9H39.4z"/>
						<path id="Shape_1_" class="st1" d="M32.8,29.5h-5c-0.7,0-1.2,0.5-1.2,1.2v8.5h-10v-8.5c0-0.7-0.6-1.2-1.2-1.2h-5
							C9.6,29.5,9,30,9,30.7v12.1c0,2,1.7,3.6,3.8,3.6h17.5c2.1,0,3.7-1.6,3.8-3.6V30.7C34,30,33.4,29.5,32.8,29.5z M31.5,42.8
							c0,0.7-0.6,1.2-1.2,1.2H12.8c-0.7,0-1.2-0.5-1.2-1.2V31.9H14v8.5c0,0.7,0.6,1.2,1.2,1.2h12.5c0.7,0,1.2-0.5,1.2-1.2v-8.5h2.5
							V42.8z"/>
					</g>
				</g>
				<rect id="Rectangle" y="0" class="st2" width="128" height="114"/>
			</g>
		</g>
	</g>
</g>
</svg>
