<?xml version="1.0" encoding="utf-8"?>
<!-- Generator: Adobe Illustrator 24.0.1, SVG Export Plug-In . SVG Version: 6.00 Build 0)  -->
<svg version="1.1" id="Layer_1" xmlns="http://www.w3.org/2000/svg" xmlns:xlink="http://www.w3.org/1999/xlink" x="0px" y="0px"
	 viewBox="0 0 66 52" style="enable-background:new 0 0 66 52;" xml:space="preserve">
<style type="text/css">
	.st0{fill-rule:evenodd;clip-rule:evenodd;fill:#EF9FC1;}
	.st1{fill:#75787B;}
</style>
<g>
	<circle class="st0" cx="44" cy="30" r="22"/>
	<g>
		<path class="st1" d="M50.9,40c0-2.5-0.9-5-2.5-7l2.2-14.7c0.1-0.7-0.1-1.5-0.6-2c-0.5-0.6-1.2-0.9-1.9-0.9h-0.6V7.6
			c0-1.4-1.1-2.5-2.6-2.5H24l-6.1-4.6c-0.4-0.3-1-0.5-1.5-0.5H5.8C4.4,0,3.2,1.1,3.2,2.5v12.8H2.7c-0.7,0-1.4,0.3-1.9,0.9
			c-0.5,0.6-0.7,1.3-0.6,2l4.6,30.6C4.9,50.1,6,51,7.3,51h32.6c0.3,0,0.5,0,0.8,0c1.5-0.1,3-0.5,4.4-1.2c0.2-0.1,0.4-0.2,0.7-0.4
			C49,47.4,51,43.8,50.9,40z M5.8,1.7h10.5c0.2,0,0.4,0.1,0.5,0.2l6.4,4.8c0.1,0.1,0.3,0.2,0.5,0.2H45c0.5,0,0.9,0.4,0.9,0.8v4.2H5
			V2.5C5,2.1,5.3,1.7,5.8,1.7z M4.9,13.6h40.9v1.7H5L4.9,13.6L4.9,13.6z M34,49.3H7.3c-0.4,0-0.8-0.3-0.8-0.7L1.8,18
			c0-0.2,0-0.5,0.2-0.7C2.2,17.1,2.4,17,2.7,17h45.5c0.2,0,0.5,0.1,0.7,0.3c0.2,0.2,0.2,0.4,0.2,0.7l-2,13.5
			c-0.1-0.1-0.2-0.2-0.3-0.2c-0.1-0.1-0.2-0.1-0.3-0.2c-0.2-0.2-0.5-0.3-0.7-0.5c-0.1,0-0.1-0.1-0.2-0.1c-0.3-0.2-0.6-0.3-1-0.5
			c-0.1,0-0.2-0.1-0.2-0.1c-0.3-0.1-0.5-0.2-0.8-0.3c-0.1,0-0.2-0.1-0.4-0.1c-0.2-0.1-0.5-0.1-0.7-0.2c-0.1,0-0.3-0.1-0.4-0.1
			c-0.2-0.1-0.5-0.1-0.7-0.1c-0.1,0-0.2,0-0.3,0c-0.4,0-0.7-0.1-1.1-0.1c-6.1,0-11.1,5-11.1,11.1c0,0.3,0,0.7,0.1,1
			c0,0.1,0,0.1,0,0.2c0,0.3,0.1,0.6,0.1,1c0,0,0,0.1,0,0.1c0.1,0.3,0.1,0.6,0.2,0.8l0.1,0.2c0.1,0.3,0.2,0.6,0.3,0.9
			c0,0.1,0,0.1,0.1,0.1c0.1,0.3,0.2,0.5,0.4,0.8c0,0.1,0.1,0.1,0.1,0.2c0.1,0.3,0.3,0.5,0.5,0.8c0,0.1,0.1,0.1,0.1,0.2
			c0.2,0.2,0.3,0.5,0.5,0.7c0,0,0.1,0.1,0.1,0.1c0.2,0.2,0.4,0.5,0.6,0.7l0.2,0.1c0.2,0.2,0.4,0.4,0.7,0.6l0.1,0
			c0.2,0.2,0.5,0.4,0.8,0.6l0.2,0.1C33.8,49.2,33.9,49.3,34,49.3L34,49.3z M44.8,47.9c-3.4,2.1-7.7,1.8-10.8-0.7s-4.3-6.7-2.9-10.4
			c1.3-3.7,4.9-6.2,8.8-6.2c0.3,0,0.7,0,1,0.1c2.3,0.3,4.5,1.4,6,3.1c1.8,2.1,2.7,4.8,2.2,7.6C48.7,44.1,47.1,46.5,44.8,47.9
			L44.8,47.9z"/>
		<path class="st1" d="M46.7,39.1h-6v-6c0-0.5-0.4-0.8-0.9-0.8c-0.5,0-0.9,0.4-0.9,0.8v6h-6c-0.5,0-0.9,0.4-0.9,0.8s0.4,0.8,0.9,0.8
			h6v6c0,0.5,0.4,0.8,0.9,0.8c0.5,0,0.9-0.4,0.9-0.8v-5.9h6c0.5,0,0.9-0.4,0.9-0.8C47.5,39.5,47.2,39.1,46.7,39.1z"/>
	</g>
</g>
</svg>
