<?xml version="1.0" encoding="utf-8"?>
<!-- Generator: Adobe Illustrator 24.0.1, SVG Export Plug-In . SVG Version: 6.00 Build 0)  -->
<svg version="1.1" id="Layer_1" xmlns="http://www.w3.org/2000/svg" xmlns:xlink="http://www.w3.org/1999/xlink" x="0px" y="0px"
	 viewBox="0 0 128 114" style="enable-background:new 0 0 128 114;" xml:space="preserve">
<style type="text/css">
	.st0{fill:none;}
	.st1{fill:#EF9FC1;}
	.st2{fill:#75787B;}
</style>
<title>icon_step3</title>
<g id="Landing">
	<g id="Landing_SSU_una-sucursal_cuisine" transform="translate(-747.000000, -1832.000000)">
		<g id="Group-18" transform="translate(223.000000, 1832.000000)">
			<g id="icon_step3" transform="translate(524.000000, 0.000000)">
				<rect id="Rectangle-Copy-3" y="0" class="st0" width="128" height="114"/>
				<g id="Group-21" transform="translate(15.000000, 6.000000)">
					<path id="_x33_" class="st1" d="M20.5,61.2c15.6,0,22.3-9.4,22.3-19.8c0-10.2-5.5-16.2-16.7-17.1L41.9,7.6V0H2v8.8h26.5
						L12.6,25.9v6.3h8c8.5,0,11.8,3.8,11.8,9.6c0,5.5-3.7,10.3-12.3,10.3c-8.9,0-14.3-6.4-14.3-6.4l-5.4,7.2
						C0.4,52.9,6.6,61.2,20.5,61.2z"/>
					<g id="step-3" transform="translate(10.000000, 25.000000)">
						<path id="Shape" class="st2" d="M81.4,25H66.9c-2.5,0-4.6,2-4.6,4.6v16.7h-5.5c0.3-1.1,0.4-2.4,0.3-3.9v0
							c-0.1-6.4-1.3-11.7-3.4-16c-1.7-3.3-3.7-5.2-5.3-6.4c2-2,3.1-4.9,3.1-8.2c0-6-4.8-10.9-10.7-10.9S30.1,5.8,30.1,11.8
							c0,0.7,0.6,1.3,1.3,1.3h0.9c-0.1,0.5-0.1,1-0.1,1.4c0,4.2,3,7.7,7,8.5c-0.4,1.6-0.6,3.4-0.6,5.5l-3.1,2.7l-7.6,0.6l-8.8-2.9
							c-0.8-0.3-1.7-0.6-2.5,0c-0.8,0.6-0.8,1.5-0.8,1.9v6.5c0,0.7,0.6,1.3,1.3,1.3h1.5l-2.3,7.9c-0.2,0.7,0.2,1.4,0.9,1.6
							c0.7,0.2,1.4-0.2,1.6-0.9l2.5-8.6h3.6c-4.5,13.5-1.9,22.6,2,31.7h-2.3l-9.4-10.5l2-6.9c0.2-0.7-0.2-1.4-0.9-1.6
							c-0.7-0.2-1.4,0.2-1.6,0.9l-1.9,6.6c-5.9-0.1-11.2,4-12.5,9.8C-0.1,69.2,0.3,69.9,1,70l1.8,0.4c-0.5,4.7,2.7,9.2,7.4,10.3
							c0.7,0.2,1.5,0.2,2.2,0.2c1.8,0,3.5-0.5,5.1-1.5c1.8-1.1,3.2-2.8,3.9-4.8l1.4,0.3c0.4,0.1,0.8,0.1,1.2-0.1
							c0.4-0.2,0.6-0.6,0.7-1c0.1-0.4,0.2-0.8,0.2-1.2h26.3c0.8,5.2,5.3,9.2,10.6,9.2s9.8-3.9,10.6-9.2h1c0,0,0.2,0,0.2,0
							c0.4,0,0.9,0,1.3-0.5c0.2-0.2,0.5-0.6,0.4-1.2c0-1.2-0.2-2.3-0.5-3.4c1-6.1,0-9.8-1.4-12.7c0.9-0.6,1.5-1.6,1.5-2.8v-3.4h6.4
							c2.5,0,4.6-2,4.6-4.6V29.5C86,27,84,25,81.4,25z M16.1,77.4c-1.6,1-3.5,1.3-5.4,0.9h0c-3.4-0.8-5.7-3.9-5.5-7.3l13.7,3.1
							C18.3,75.5,17.4,76.6,16.1,77.4L16.1,77.4z M22.4,72.4L2.8,67.9c1.5-4.1,5.6-6.9,10-6.6l9.6,10.7
							C22.5,72.1,22.5,72.2,22.4,72.4z M41.5,50.5c-0.4,1-0.4,2.1-0.4,3.8V59h-4.6v-6.5c0-7.3,4-8.7,5.8-8.9h12.4
							c0,1.7-0.4,2.9-1.1,3.6c-0.8,0.9-2.3,1.3-4.4,1.3l-4.5,0C43,48.6,42,49.2,41.5,50.5L41.5,50.5z M41.1,61.5v3c0,0,0,0,0,0h-8.9
							c0.1-0.9,0.4-1.6,0.9-2.1c0.7-0.7,1.7-0.9,2.2-0.9H41.1z M54.6,41.1H43.2c-0.5-1.4-0.9-3-1.2-4.6l3.5-2.3
							c1.9-1.2,2.9-3,2.7-4.8c-0.2-1.6-1.2-3-2.8-3.6c-1.4-0.6-2.9-0.4-4.2,0.5c0.1-1.2,0.3-2.3,0.6-3.2c0.5-0.1,1.1-0.2,1.6-0.3
							c1.1-0.2,2.1-0.6,2.9-1.2C48.7,23.1,54.1,27.8,54.6,41.1L54.6,41.1z M32.8,10.5c0.6-4,4-7.1,8.1-7.1c4.5,0,8.2,3.7,8.2,8.3
							c0,3.7-1.8,6.8-4.7,8.1v-6.6c0-1.1-0.4-2.5-2.5-2.7c0,0-0.1,0-0.1,0H32.8z M34.7,14.5c0-0.5,0.1-1,0.2-1.4h6.8
							c0.1,0,0.1,0,0.2,0c0,0,0,0.1,0,0.2v7.3c-0.3,0-0.6,0.1-0.9,0.1c0,0,0,0,0,0C37.4,20.6,34.7,17.9,34.7,14.5z M33,33.9l3-0.2
							c0.3,0,0.5-0.1,0.7-0.3l5.4-4.6l0,0c0.5-0.4,1.1-0.7,1.6-0.7c0.2,0,0.5,0,0.7,0.1c0.7,0.3,1.1,0.9,1.2,1.5
							c0.1,0.8-0.5,1.7-1.6,2.4l-6,3.9h-5L33,33.9L33,33.9z M27.7,34.3l2.8-0.2V36h-3.3c-0.4,0-0.5-0.3-0.5-0.6
							C26.7,35.2,26.7,34.4,27.7,34.3z M24.7,33.4c-0.4,0.6-0.6,1.3-0.5,2.1c0,0.2,0,0.4,0.1,0.5c0,0,0,0,0,0h-6.1v-4.8L24.7,33.4
							C24.7,33.4,24.7,33.4,24.7,33.4z M27.2,38.5h11.2c0.2,0,0.5-0.1,0.7-0.2l0.6-0.4c0.3,1.2,0.6,2.4,0.9,3.5
							c-2.6,0.8-6.6,3.2-6.6,11.1v6.6c-0.9,0.2-1.9,0.6-2.8,1.5c-0.9,1-1.4,2.3-1.6,3.9h-2.5C24.5,57.2,23.5,49.3,27.2,38.5
							L27.2,38.5z M29.3,70.2c-0.5-1.1-0.9-2.1-1.3-3.2h13.1c1.7,0,2.6-0.8,2.6-2.3v-4.5v-4.7h9.9c0.7,0,1.3-0.6,1.3-1.3
							S54.3,53,53.6,53h-9.9c0-0.7,0.1-1.3,0.2-1.6c0.1-0.2,0.1-0.3,0.8-0.3l4.5,0c2.8,0,4.9-0.7,6.2-2.1c0.1-0.1,0.1-0.1,0.2-0.2h8
							h9v3.4c0,0.4-0.4,0.8-0.8,0.8H59.2c-0.7,0-1.3,0.6-1.3,1.3s0.6,1.3,1.3,1.3H71c1,1.8,1.9,4.1,1.8,7.8
							c-2.5-3.4-6.5-5.7-11.1-5.7c-3.7,0-7.1,1.4-9.7,4c-2.3,2.3-3.7,5.3-4,8.6L29.3,70.2z M61.9,79.4c-3.9,0-7.3-2.8-8.1-6.6H70
							C69.2,76.6,65.8,79.4,61.9,79.4L61.9,79.4z M71.4,70.2h-19h-1.8c0.6-5.7,5.4-10.1,11.1-10.1c5.1,0,9.3,3.3,10.7,8c0,0,0,0,0,0
							c0.2,0.7,0.3,1.4,0.4,2.1H71.4z M83.5,44.2c0,1.1-0.9,2-2,2H64.8v-6.5h18.7V44.2z M83.5,37.3H64.8v-2.7h18.7V37.3z M83.5,32.1
							H64.8v-2.6c0-1.1,0.9-2,2-2h14.6c1.1,0,2,0.9,2,2V32.1z"/>
					</g>
				</g>
			</g>
		</g>
	</g>
</g>
</svg>
