<?xml version="1.0" encoding="utf-8"?>
<!-- Generator: Adobe Illustrator 24.0.1, SVG Export Plug-In . SVG Version: 6.00 Build 0)  -->
<svg version="1.1" id="Layer_1" xmlns="http://www.w3.org/2000/svg" xmlns:xlink="http://www.w3.org/1999/xlink" x="0px" y="0px"
	 viewBox="0 0 63 51" style="enable-background:new 0 0 63 51;" xml:space="preserve">
<style type="text/css">
	.st0{fill-rule:evenodd;clip-rule:evenodd;fill:#EF9FC1;}
	.st1{fill:#75787B;}
</style>
<g>
	<circle class="st0" cx="41" cy="27" r="22"/>
	<g>
		<path class="st1" d="M50.8,25l-3.9-5.2l0.8-6.5c0-0.4-0.2-0.7-0.5-0.9l-6-2.6l-2.6-6c-0.1-0.3-0.5-0.6-0.9-0.5l-6.5,0.8L26,0.2
			c-0.3-0.2-0.7-0.2-1,0l-5.2,3.9l-6.5-0.8c-0.4,0-0.7,0.2-0.9,0.5l-2.6,6l-6,2.6c-0.3,0.1-0.6,0.5-0.5,0.9l0.8,6.5L0.2,25
			c-0.2,0.3-0.2,0.7,0,1l3.9,5.2l-0.8,6.5c0,0.4,0.2,0.7,0.5,0.9l6,2.6l2.6,6c0.1,0.3,0.5,0.6,0.9,0.5l6.5-0.8l5.2,3.9
			c0.3,0.2,0.7,0.2,1,0l5.2-3.9l6.5,0.8c0.4,0,0.7-0.2,0.9-0.5l2.6-6l6-2.6c0.3-0.2,0.6-0.5,0.5-0.9l-0.8-6.5l3.9-5.2
			C51.1,25.7,51.1,25.3,50.8,25L50.8,25z M5.1,37.3l0.7-6.2c0-0.2,0-0.4-0.2-0.6l-3.7-5l3.7-5c0.1-0.2,0.2-0.4,0.2-0.6l-0.2-2h7.2
			V40h-1.7c-0.1-0.1-0.2-0.2-0.3-0.2L5.1,37.3L5.1,37.3z M45.3,30.5c-0.1,0.2-0.2,0.4-0.2,0.6l0.7,6.2l-5.7,2.4
			c-0.2,0.1-0.4,0.2-0.4,0.4l-2.4,5.7l-6.2-0.7c-0.2,0-0.4,0-0.6,0.2l-5,3.7l-5-3.7c-0.1-0.1-0.3-0.2-0.5-0.2c0,0-0.1,0-0.1,0
			l-6.2,0.7l-1.8-4.3h2.6V40h21.3c1.3,0,2.4-0.7,3-1.8c0.6-1.1,0.5-2.4-0.2-3.5c1.1-0.4,1.9-1.2,2.2-2.3c0.3-1.1,0-2.2-0.7-3.1
			c0.2-0.1,0.5-0.3,0.6-0.5c0.7-0.7,1.1-1.8,1-2.8c-0.1-1-0.7-2-1.6-2.5c0.6-0.7,0.9-1.6,0.8-2.5c-0.2-1.8-1.7-3.2-3.5-3.2h-8.3
			v-6.8c0-2.3-1.9-4.3-4.2-4.3h-1.7c-0.5,0-0.9,0.4-0.9,0.8v3.4c0,3.8-3,6.8-6.8,6.8h-0.9v-1.7H5.4l-0.3-2.4l5.7-2.4
			c0.2-0.1,0.4-0.2,0.4-0.4l2.4-5.7l6.2,0.7c0.2,0,0.4,0,0.6-0.2l5-3.8l5,3.7c0.2,0.1,0.4,0.2,0.6,0.2l6.2-0.7l2.4,5.7
			c0.1,0.2,0.2,0.4,0.4,0.4l5.7,2.4l-0.7,6.2c0,0.2,0,0.4,0.2,0.6l3.7,5L45.3,30.5L45.3,30.5z M28,19.5h9.2c0.9,0,1.7,0.7,1.8,1.6
			c0,0.5-0.1,1-0.5,1.3c-0.3,0.3-0.8,0.5-1.2,0.5h-1.7c-0.5,0-0.9,0.4-0.9,0.9c0,0.5,0.4,0.9,0.8,0.9h2.4c0.9,0,1.7,0.7,1.8,1.6
			c0,0.5-0.1,1-0.5,1.3c-0.3,0.3-0.8,0.5-1.2,0.5h-2.5c-0.5,0-0.9,0.4-0.9,0.9c0,0.5,0.4,0.9,0.8,0.9h1.7c0.9,0,1.7,0.8,1.7,1.7
			c0,0.9-0.8,1.7-1.7,1.7h-2.5c-0.5,0-0.8,0.4-0.8,0.8c0,0.5,0.4,0.8,0.8,0.8h0.8c0.9,0,1.7,0.8,1.7,1.7s-0.8,1.7-1.7,1.7H14.4V19.5
			h0.9c4.7,0,8.5-3.8,8.5-8.5V8.5h0.9c1.4,0,2.6,1.1,2.6,2.6v7.6C27.2,19.2,27.6,19.5,28,19.5L28,19.5z"/>
	</g>
</g>
</svg>
