<?xml version="1.0" encoding="utf-8"?>
<!-- Generator: Adobe Illustrator 24.0.1, SVG Export Plug-In . SVG Version: 6.00 Build 0)  -->
<svg version="1.1" id="Layer_1" xmlns="http://www.w3.org/2000/svg" xmlns:xlink="http://www.w3.org/1999/xlink" x="0px" y="0px"
	 viewBox="0 0 72.58 27" style="enable-background:new 0 0 72.58 27;" xml:space="preserve">
<style type="text/css">
	.st0{fill:#FFFFFF;}
</style>
<g>
	<g>
		<path class="st0" d="M15.94,11.09h0.99v-0.91c0-1.11,0.62-1.85,1.85-1.85l0.62,0.12v1.11l-0.68-0.12c-0.37,0-0.55,0.25-0.55,0.62
			v1.04h1.23v1.11h-1.23v4.68h-1.23V12.2h-0.99L15.94,11.09L15.94,11.09z"/>
		<path class="st0" d="M22.59,10.96c1.6,0,3.02,1.23,3.02,3.02S24.19,17,22.59,17s-3.02-1.23-3.02-3.02
			C19.57,12.2,20.99,10.96,22.59,10.96z M22.59,15.89c1.17,0,1.79-0.86,1.79-1.91s-0.62-1.91-1.79-1.91c-1.17,0-1.79,0.86-1.79,1.91
			S21.42,15.89,22.59,15.89z"/>
		<path class="st0" d="M29.18,10.96c1.6,0,3.02,1.23,3.02,3.02S30.78,17,29.18,17s-3.02-1.23-3.02-3.02
			C26.16,12.2,27.57,10.96,29.18,10.96z M29.18,15.89c1.17,0,1.79-0.86,1.79-1.91s-0.62-1.91-1.79-1.91c-1.17,0-1.79,0.86-1.79,1.91
			S28,15.89,29.18,15.89z"/>
		<path class="st0" d="M38.66,16.88h-1.11l-0.12-0.49l-0.06-0.06l-0.06,0.06c-0.37,0.37-0.99,0.62-1.6,0.62
			c-1.6,0-2.96-1.23-2.96-3.02s1.36-3.02,2.96-3.02c0.6,0,1.23,0.25,1.6,0.62l0.06,0.06l0.06-0.06V8.32h1.23V16.88z M35.76,12.07
			c-1.17,0-1.8,0.86-1.8,1.91s0.63,1.91,1.8,1.91c1.05,0,1.79-0.86,1.79-1.91C37.55,12.94,36.81,12.07,35.76,12.07z"/>
		<path class="st0" d="M39.89,11.09H41l0.11,0.49l0.07,0.06l0.06-0.06c0.37-0.37,0.99-0.62,1.6-0.62c1.6,0,2.96,1.23,2.96,3.02
			S44.44,17,42.84,17c-0.6,0-1.23-0.25-1.6-0.62l-0.06-0.06l-0.07,0.06v3.11h-1.22V11.09z M42.79,15.89c1.17,0,1.79-0.86,1.79-1.91
			s-0.62-1.91-1.79-1.91c-1.05,0-1.79,0.86-1.79,1.91S41.74,15.89,42.79,15.89z"/>
		<path class="st0" d="M48.92,13.28h1.01v-0.26c0-0.7-0.48-1.02-1.14-1.02c-0.53,0-0.89,0.26-1.09,0.78l-1.1-0.23
			c0.24-0.99,1.09-1.61,2.2-1.61c1.56,0,2.33,0.77,2.33,2.31v3.63h-1.02l-0.12-0.77c-0.41,0.57-1.01,0.86-1.81,0.86
			c-1.03,0-1.8-0.62-1.8-1.78C46.39,14,47.4,13.28,48.92,13.28z M48.4,15.91c0.41,0,0.77-0.13,1.07-0.38
			c0.31-0.27,0.46-0.63,0.46-1.1V14.3h-1.06c-0.74,0-1.21,0.35-1.21,0.91C47.66,15.62,47.92,15.91,48.4,15.91z"/>
		<path class="st0" d="M52.27,11.09h1.11l0.12,0.49l0.06,0.06l0.06-0.06c0.25-0.37,0.86-0.62,1.36-0.62c1.48,0,2.34,0.99,2.34,2.34
			v3.58h-1.23V13.3c-0.04-0.79-0.42-1.23-1.23-1.23c-0.73,0-1.33,0.59-1.36,1.31v3.5h-1.23L52.27,11.09L52.27,11.09z"/>
		<path class="st0" d="M64.04,16.88h-1.11l-0.12-0.49l-0.06-0.06l-0.06,0.06C62.31,16.76,61.7,17,61.08,17
			c-1.6,0-2.96-1.23-2.96-3.02s1.36-3.02,2.96-3.02c0.6,0,1.23,0.25,1.6,0.62l0.06,0.06l0.06-0.06V8.32h1.23v8.56
			C64.03,16.88,64.04,16.88,64.04,16.88z M61.14,12.07c-1.17,0-1.8,0.86-1.8,1.91s0.63,1.91,1.8,1.91c1.05,0,1.79-0.86,1.79-1.91
			C62.93,12.94,62.19,12.07,61.14,12.07z"/>
		<path class="st0" d="M67.55,13.28h1.01v-0.26c0-0.7-0.48-1.02-1.14-1.02c-0.53,0-0.89,0.26-1.09,0.78l-1.1-0.23
			c0.24-0.99,1.09-1.61,2.2-1.61c1.56,0,2.33,0.77,2.33,2.31v3.63h-1.02l-0.12-0.77c-0.41,0.57-1.01,0.86-1.81,0.86
			c-1.03,0-1.8-0.62-1.8-1.78C65.02,14,66.03,13.28,67.55,13.28z M67.03,15.91c0.41,0,0.77-0.13,1.07-0.38
			c0.31-0.27,0.46-0.63,0.46-1.1V14.3H67.5c-0.74,0-1.21,0.35-1.21,0.91C66.3,15.62,66.55,15.91,67.03,15.91z"/>
	</g>
	<path class="st0" d="M5.42,10.93c-0.15,0-0.27,0.12-0.27,0.27c0,0.15,0.12,0.27,0.27,0.27s0.27-0.12,0.27-0.27
		C5.69,11.06,5.57,10.93,5.42,10.93z M5.42,10.93c-0.15,0-0.27,0.12-0.27,0.27c0,0.15,0.12,0.27,0.27,0.27s0.27-0.12,0.27-0.27
		C5.69,11.06,5.57,10.93,5.42,10.93z M5.42,10.93c-0.15,0-0.27,0.12-0.27,0.27c0,0.15,0.12,0.27,0.27,0.27s0.27-0.12,0.27-0.27
		C5.69,11.06,5.57,10.93,5.42,10.93z M9.33,10.93c-0.15,0-0.27,0.12-0.27,0.27c0,0.15,0.12,0.27,0.27,0.27S9.6,11.35,9.6,11.2
		C9.61,11.06,9.49,10.93,9.33,10.93z M9.33,10.93c-0.15,0-0.27,0.12-0.27,0.27c0,0.15,0.12,0.27,0.27,0.27S9.6,11.35,9.6,11.2
		C9.61,11.06,9.49,10.93,9.33,10.93z M5.42,10.93c-0.15,0-0.27,0.12-0.27,0.27c0,0.15,0.12,0.27,0.27,0.27s0.27-0.12,0.27-0.27
		C5.69,11.06,5.57,10.93,5.42,10.93z M12.57,12.31c0-0.07-0.01-0.14-0.01-0.21c0-0.02,0-0.03,0-0.05c-0.01-0.08-0.02-0.16-0.03-0.24
		c-0.02-0.1-0.04-0.21-0.06-0.31c-0.01-0.07-0.03-0.13-0.05-0.2c-0.02-0.08-0.05-0.17-0.07-0.25l0,0c-0.03-0.08-0.06-0.16-0.08-0.24
		c-0.03-0.08-0.06-0.16-0.09-0.24c-0.06-0.16-0.14-0.31-0.22-0.46s-0.17-0.29-0.26-0.43c0.01-0.01,0.02-0.02,0.03-0.03
		c0.02-0.02,0.04-0.04,0.06-0.06l0,0c0.01-0.01,0.02-0.02,0.03-0.03c0.02-0.02,0.04-0.05,0.06-0.07c0.01-0.01,0.02-0.02,0.02-0.03
		c0.02-0.03,0.05-0.06,0.06-0.1c0-0.01,0.01-0.01,0.01-0.02c0,0,0-0.01,0.01-0.01V9.32c0.02-0.03,0.04-0.07,0.05-0.1
		c0.02-0.04,0.04-0.09,0.06-0.14c0.01-0.02,0.01-0.04,0.02-0.06c0-0.02,0.01-0.03,0.01-0.05s0.01-0.04,0.01-0.06
		c0.01-0.03,0.01-0.07,0.02-0.11c0,0,0-0.01,0-0.02s0-0.03,0-0.04c0-0.04,0-0.07,0-0.11c0-0.76-0.62-1.38-1.38-1.38
		c-0.04,0-0.09,0-0.13,0.01c-0.02,0-0.04,0-0.05,0.01c-0.04,0-0.07,0.01-0.1,0.02c-0.04,0.01-0.08,0.02-0.12,0.03
		c-0.01,0-0.02,0-0.03,0.01c-0.04,0.01-0.07,0.02-0.1,0.04c0,0,0,0-0.01,0c-0.04,0.02-0.08,0.04-0.12,0.06
		c-0.03,0.02-0.06,0.04-0.1,0.06C10,7.49,9.99,7.5,9.99,7.51C9.96,7.53,9.93,7.55,9.9,7.57c-0.01,0-0.02,0.01-0.03,0.03
		C9.84,7.62,9.82,7.64,9.8,7.66C9.79,7.67,9.78,7.68,9.77,7.69l0,0C9.75,7.71,9.72,7.74,9.7,7.76C9.67,7.79,9.64,7.83,9.62,7.87
		C9.61,7.88,9.61,7.88,9.6,7.89C9.52,7.85,9.44,7.82,9.36,7.78C9.28,7.75,9.2,7.72,9.12,7.69c-0.05-0.02-0.1-0.04-0.16-0.05
		C8.91,7.62,8.87,7.61,8.82,7.59C8.77,7.58,8.73,7.56,8.68,7.55c-0.03-0.01-0.06-0.02-0.1-0.03C8.57,7.51,8.52,7.5,8.48,7.5
		c-0.06-0.02-0.13-0.03-0.2-0.04c-0.02,0-0.05-0.01-0.07-0.01C8.15,7.44,8.09,7.43,8.03,7.42C7.99,7.41,7.96,7.41,7.92,7.41
		C7.84,7.4,7.76,7.39,7.67,7.39c-0.01,0-0.02,0-0.03,0c-0.1-0.01-0.2-0.01-0.3-0.01s-0.2,0-0.3,0.01c-0.01,0-0.02,0-0.03,0
		c-0.08,0-0.17,0.01-0.25,0.02c-0.04,0-0.07,0.01-0.11,0.01C6.59,7.43,6.53,7.44,6.47,7.45c-0.02,0-0.05,0.01-0.07,0.01
		C6.34,7.47,6.27,7.48,6.21,7.5C6.16,7.51,6.12,7.52,6.07,7.53c-0.03,0.01-0.06,0.02-0.1,0.03C5.92,7.57,5.88,7.58,5.83,7.6
		C5.78,7.61,5.74,7.63,5.69,7.65C5.64,7.66,5.58,7.68,5.53,7.7C5.45,7.73,5.37,7.76,5.29,7.79S5.13,7.86,5.05,7.9
		c0-0.01-0.01-0.01-0.02-0.02c0-0.05-0.03-0.09-0.05-0.12C4.96,7.73,4.94,7.71,4.91,7.69l0,0C4.9,7.68,4.89,7.67,4.88,7.66
		C4.86,7.64,4.83,7.62,4.81,7.6C4.8,7.59,4.79,7.58,4.78,7.57C4.75,7.55,4.72,7.52,4.69,7.51C4.68,7.5,4.68,7.5,4.67,7.49
		c-0.03-0.02-0.06-0.04-0.1-0.06C4.53,7.41,4.5,7.39,4.45,7.37c0,0,0,0-0.01,0c-0.03-0.01-0.06-0.03-0.1-0.04
		c-0.01,0-0.02,0-0.03-0.01C4.27,7.31,4.23,7.3,4.19,7.29c-0.03-0.01-0.07-0.01-0.1-0.02c-0.02,0-0.04,0-0.05-0.01
		C4,7.26,3.95,7.25,3.91,7.25c-0.76,0-1.38,0.62-1.38,1.38c0,0.04,0,0.08,0,0.11c0,0.01,0,0.03,0,0.04c0,0,0,0.01,0,0.02
		c0,0.04,0.01,0.07,0.02,0.11c0,0.02,0.01,0.04,0.01,0.06s0.01,0.04,0.01,0.05c0,0.02,0.01,0.04,0.02,0.06
		C2.6,9.13,2.62,9.17,2.65,9.22c0.01,0.03,0.03,0.07,0.05,0.1v0.01c0,0,0,0.01,0.01,0.01c0,0,0.01,0.01,0.01,0.02
		c0.02,0.03,0.04,0.06,0.06,0.1C2.79,9.47,2.79,9.48,2.8,9.49c0.02,0.03,0.04,0.05,0.06,0.07c0.01,0.01,0.02,0.02,0.03,0.03l0,0
		c0.02,0.02,0.04,0.04,0.06,0.06c0.01,0.01,0.02,0.02,0.03,0.03C2.89,9.82,2.8,9.96,2.72,10.11c-0.08,0.15-0.16,0.3-0.22,0.46
		c-0.03,0.08-0.06,0.16-0.09,0.24s-0.06,0.16-0.08,0.24l0,0c-0.02,0.08-0.05,0.16-0.07,0.25c-0.02,0.07-0.03,0.13-0.05,0.2
		c-0.02,0.1-0.04,0.21-0.06,0.31c-0.01,0.08-0.02,0.16-0.03,0.24c0,0.02,0,0.03,0,0.05c-0.01,0.07-0.01,0.14-0.01,0.21
		c-0.01,0.1-0.01,0.2-0.01,0.3c0,0.99,0.28,1.92,0.76,2.72c0.04,0.06,0.07,0.12,0.11,0.17c0.05,0.07,0.1,0.14,0.15,0.21
		c0.1,0.14,0.21,0.27,0.32,0.4c0.06,0.06,0.12,0.12,0.17,0.18c0.09,0.1,0.19,0.19,0.29,0.28c0.05,0.05,0.11,0.09,0.16,0.13
		c0.37,0.3,0.79,0.55,1.23,0.73l0,0c0.16,0.07,0.32,0.13,0.48,0.18c0.49,0.15,1.02,0.23,1.56,0.23s1.07-0.08,1.56-0.23
		c0.16-0.05,0.32-0.11,0.48-0.18l0,0c0.44-0.19,0.86-0.44,1.23-0.73c0.05-0.04,0.11-0.09,0.16-0.13c0.1-0.09,0.2-0.18,0.29-0.28
		c0.06-0.06,0.12-0.12,0.17-0.18c0.12-0.13,0.22-0.26,0.32-0.4c0.05-0.07,0.1-0.14,0.15-0.21c0.04-0.06,0.07-0.12,0.11-0.17
		c0.48-0.79,0.76-1.72,0.76-2.72C12.58,12.51,12.58,12.41,12.57,12.31z M7.33,12.71c0.24,0,0.91,0.04,0.91,0.26
		c0,0.39-0.83,0.67-0.91,0.65c-0.08,0.02-0.91-0.26-0.91-0.65C6.42,12.75,7.1,12.71,7.33,12.71z M4.29,10.34
		c0.46-0.3,1.46-0.48,1.86,0.04c0,0,0.5,0.53,0.01,1.09s-0.87,1.07-0.98,1.52s-0.29,0.64-0.65,0.64s-1.06-0.56-1.15-1.45
		C3.28,11.29,3.83,10.64,4.29,10.34z M8.62,13.94c0,0.63-0.58,1.13-1.29,1.13s-1.29-0.51-1.29-1.13H8.62z M10.15,13.63
		c-0.36,0-0.54-0.19-0.65-0.64c-0.11-0.45-0.49-0.97-0.98-1.52c-0.49-0.56,0.01-1.09,0.01-1.09c0.4-0.52,1.4-0.34,1.86-0.04
		c0.45,0.3,1.01,0.95,0.92,1.84C11.21,13.07,10.51,13.63,10.15,13.63z M10.78,7.66c0.54,0,0.98,0.44,0.98,0.98
		c0,0.28-0.12,0.53-0.31,0.71c-0.02-0.03-0.04-0.05-0.06-0.07c-0.05-0.06-0.11-0.13-0.17-0.19c-0.06-0.06-0.11-0.12-0.17-0.18
		s-0.12-0.12-0.18-0.17c-0.06-0.06-0.12-0.11-0.19-0.17c-0.06-0.06-0.13-0.11-0.2-0.16c-0.06-0.05-0.12-0.09-0.19-0.14
		c-0.01-0.01-0.01-0.01-0.02-0.01c-0.06-0.05-0.13-0.09-0.2-0.13c-0.03-0.01-0.06-0.03-0.09-0.05C10.16,7.83,10.45,7.66,10.78,7.66z
		 M2.93,8.64c0-0.54,0.44-0.98,0.98-0.98c0.33,0,0.62,0.17,0.8,0.42C4.68,8.1,4.65,8.11,4.62,8.13c-0.07,0.04-0.13,0.08-0.2,0.13
		c-0.01,0-0.01,0.01-0.02,0.01C4.34,8.31,4.27,8.36,4.21,8.41c-0.07,0.05-0.13,0.1-0.2,0.16C3.95,8.62,3.88,8.68,3.82,8.74
		C3.76,8.8,3.7,8.85,3.64,8.91S3.52,9.03,3.47,9.09C3.41,9.15,3.36,9.21,3.3,9.28C3.28,9.3,3.26,9.33,3.24,9.35
		C3.05,9.17,2.93,8.92,2.93,8.64z M9.33,10.93c-0.15,0-0.27,0.12-0.27,0.27c0,0.15,0.12,0.27,0.27,0.27S9.6,11.35,9.6,11.2
		C9.61,11.06,9.49,10.93,9.33,10.93z M5.42,11.48c0.15,0,0.27-0.12,0.27-0.27c0-0.15-0.12-0.27-0.27-0.27s-0.27,0.12-0.27,0.27
		C5.14,11.36,5.27,11.48,5.42,11.48z M9.33,10.93c-0.15,0-0.27,0.12-0.27,0.27c0,0.15,0.12,0.27,0.27,0.27S9.6,11.35,9.6,11.2
		C9.61,11.06,9.49,10.93,9.33,10.93z M5.42,10.93c-0.15,0-0.27,0.12-0.27,0.27c0,0.15,0.12,0.27,0.27,0.27s0.27-0.12,0.27-0.27
		C5.69,11.06,5.57,10.93,5.42,10.93z M9.33,10.93c-0.15,0-0.27,0.12-0.27,0.27c0,0.15,0.12,0.27,0.27,0.27S9.6,11.35,9.6,11.2
		C9.61,11.06,9.49,10.93,9.33,10.93z M5.42,10.93c-0.15,0-0.27,0.12-0.27,0.27c0,0.15,0.12,0.27,0.27,0.27s0.27-0.12,0.27-0.27
		C5.69,11.06,5.57,10.93,5.42,10.93z"/>
</g>
</svg>
