<svg xmlns="http://www.w3.org/2000/svg" width="73" height="53" viewBox="0 0 73 53">
    <g fill="none" fill-rule="evenodd">
        <path stroke="#A1D2E1" d="M59.587 10.5H63.5V34.76L59.587 10.5zM33.5 42.977V10.5h2.952L33.5 42.977z"/>
        <path fill="#A1D2E1" d="M46 13h1v12h-1zM50 24h14v1H50zM50 28h14v1H50zM33 28h14v1H33z"/>
        <path fill="#A1D2E1" d="M33 24h14v1H33zM50 12h1v13h-1zM46 28h1v26h-1zM50 28h1v26h-1z"/>
        <g stroke="#A1D2E1">
            <path d="M50 8.877c.983-.038.962-.061 1.944 0 .98.061 1.565.287 2.478-.049.913-.335 1.705-1.035 1.882-1.923.178-.888.197-1.64-.77-1.806-.875-.15-1.73.447-2.438.942-1.263.883-2.23 1.357-3.096.864 1.704-2.24 2.593-3.321 4.95-4.99.902-.64 2.107-1.2 3.14-.756.93.4 1.532 1.4 1.69 2.331.273 1.605.323 3.296-.032 4.887-.538 2.414-2.266 2.606-3.016 2.62-2.7.048-4.39-.31-6.732-2.12zM47 9.836c-.472-.07-1.41.33-2 .37-.59.038-1.704-.194-2.496-.37-1.25-.279-1.357-.93-1.768-2.013-.18-.475-.209-1.35.226-1.645C41.732 5.656 44.91 7.784 46 9c.185.207.731 1.11 1 1.205.269.096-.07-2.442 0-2.705-1.911-2.434-2.924-3.623-5.78-5.012-.856-.415-1.916-.712-2.753-.265-.79.421-1.084 1.344-1.235 2.186a14.912 14.912 0 0 0 .11 5.796c.243 1.116.767 2.36 1.92 2.705.81.242 1.684-.045 2.462-.367 1.861-.77 3.682-1.52 5.276-2.707z"/>
            <path d="M47.742 11.608c.2-.573.364-1.2.174-1.777-.19-.575-.876-1.021-1.419-.749A31.458 31.458 0 0 1 38 17.624a13.892 13.892 0 0 0 3.781-1.31A8.898 8.898 0 0 1 40.043 20c3.6-1.53 6.414-4.704 7.699-8.392zM49 10c.668 1.993 1.949 3.065 3.101 4.84 1.153 1.774 2.75 3.337 4.746 4.16l-1.153-2.614c.962.61 2.186.819 3.306.565a36.953 36.953 0 0 1-8.198-8.316C50.527 8.25 50.39 8.72 50 9c-.297.213-1.114.66-1 1z"/>
            <path d="M49.354 9.252c-.772.261-1.369.323-1.874.155-.558-.186-.992-.747-.98-1.312.008-.37.2-.752.5-1.017.275-.243.638-.405 1.095-.504.749-.161 1.417-.063 1.875.311.492.403.685 1.235.388 1.72-.171.28-.478.469-1.004.647z"/>
        </g>
        <g>
            <path stroke="#A1D2E1" d="M20.767 36.5H33.5v16.999L20.767 36.5zM.5 52.976V36.5h8.672L.5 52.976z"/>
            <path fill="#A1D2E1" d="M12 38h1v16h-1z"/>
            <path fill="#A1D2E1" d="M0 44h34v1H0z"/>
            <g stroke="#A1D2E1">
                <path d="M10 38l-2 4M19 47l-5-10M13.645 35.158c1.996-2.84 4.596-5.034 5.888-3.812.804.76 3.624 8.991-1.696 8.024 0 0-3.126-.543-4.803-.998M11.365 34.743C9.49 31.792 5.53 28.549 3.832 29.76c-.71.507-2.992 5.41.146 6.048"/>
                <path d="M11.189 37.794c.569.18 1.183.295 1.753.117.57-.178 1.072-.72 1.058-1.348-.01-.406-.232-.785-.535-1.036-.303-.25-.678-.386-1.056-.463-.627-.127-1.322-.086-1.838.31s-.76 1.22-.399 1.775c.229.35.63.523 1.017.645z"/>
            </g>
        </g>
        <g stroke="#A1D2E1">
            <path d="M56.5 53.5v-13h14v13h-14zM60 40l11 10M57 43l12.5 11.5M57.25 39.095c-1 0-3-4.564 2-2.608s5 3.26 5 3.26"/>
            <path d="M59.781 34.751c-.625 0-1.875-4.057 1.25-2.318 3.126 1.739 2.97 7.567 2.97 7.567"/>
            <path d="M67.22 36.064c.626 0 1.876-3.043-1.25-1.74C62.846 35.63 63.002 40 63.002 40M71 39.095c1 0 3-4.564-2-2.608s-5 3.26-5 3.26"/>
        </g>
    </g>
</svg>
